<svg xmlns="http://www.w3.org/2000/svg" xmlns:xlink="http://www.w3.org/1999/xlink" width="1920" zoomAndPan="magnify" viewBox="0 0 1440 809.999993" height="1080" preserveAspectRatio="xMidYMid meet" version="1.0"><defs><g/></defs><g fill="#ffffff" fill-opacity="1"><g transform="translate(501.839045, 662.008931)"><g><path d="M 111.921875 -40.796875 C 118.722656 -40.796875 125.257812 -41.972656 131.53125 -44.328125 C 137.8125 -46.679688 143.742188 -49.863281 149.328125 -53.875 L 173.90625 -18.828125 C 164.84375 -11.859375 155.210938 -6.320312 145.015625 -2.21875 C 134.816406 1.875 123.785156 3.921875 111.921875 3.921875 C 97.109375 3.921875 83.378906 1.4375 70.734375 -3.53125 C 58.097656 -8.5 47.070312 -15.34375 37.65625 -24.0625 C 28.238281 -32.78125 20.914062 -42.890625 15.6875 -54.390625 C 10.457031 -65.898438 7.84375 -78.28125 7.84375 -91.53125 C 7.84375 -104.78125 10.457031 -117.15625 15.6875 -128.65625 C 20.914062 -140.164062 28.238281 -150.320312 37.65625 -159.125 C 47.070312 -167.9375 58.097656 -174.828125 70.734375 -179.796875 C 83.378906 -184.765625 97.109375 -187.25 111.921875 -187.25 C 123.785156 -187.25 134.816406 -185.195312 145.015625 -181.09375 C 155.210938 -177 164.84375 -171.378906 173.90625 -164.234375 L 149.328125 -129.453125 C 137.816406 -137.992188 125.347656 -142.265625 111.921875 -142.265625 C 101.460938 -142.265625 92.09375 -140 83.8125 -135.46875 C 75.53125 -130.9375 68.945312 -124.875 64.0625 -117.28125 C 59.1875 -109.695312 56.75 -101.113281 56.75 -91.53125 C 56.75 -82.113281 59.1875 -73.566406 64.0625 -65.890625 C 68.945312 -58.222656 75.53125 -52.125 83.8125 -47.59375 C 92.09375 -43.0625 101.460938 -40.796875 111.921875 -40.796875 Z M 111.921875 -40.796875 "/></g></g></g><g fill="#ffffff" fill-opacity="1"><g transform="translate(683.592418, 662.008931)"><g><path d="M 106.4375 -187.25 C 119.6875 -187.25 132.191406 -184.765625 143.953125 -179.796875 C 155.722656 -174.828125 166.1875 -167.9375 175.34375 -159.125 C 184.5 -150.320312 191.691406 -140.164062 196.921875 -128.65625 C 202.148438 -117.15625 204.765625 -104.78125 204.765625 -91.53125 C 204.765625 -78.28125 202.148438 -65.898438 196.921875 -54.390625 C 191.691406 -42.890625 184.5 -32.78125 175.34375 -24.0625 C 166.1875 -15.34375 155.722656 -8.5 143.953125 -3.53125 C 132.191406 1.4375 119.6875 3.921875 106.4375 3.921875 C 93.1875 3.921875 80.632812 1.4375 68.78125 -3.53125 C 56.925781 -8.5 46.421875 -15.34375 37.265625 -24.0625 C 28.109375 -32.78125 20.914062 -42.890625 15.6875 -54.390625 C 10.457031 -65.898438 7.84375 -78.28125 7.84375 -91.53125 C 7.84375 -104.78125 10.457031 -117.15625 15.6875 -128.65625 C 20.914062 -140.164062 28.109375 -150.320312 37.265625 -159.125 C 46.421875 -167.9375 56.925781 -174.828125 68.78125 -179.796875 C 80.632812 -184.765625 93.1875 -187.25 106.4375 -187.25 Z M 106.4375 -41.578125 C 115.675781 -41.578125 124.085938 -43.800781 131.671875 -48.25 C 139.253906 -52.695312 145.3125 -58.710938 149.84375 -66.296875 C 154.375 -73.878906 156.640625 -82.289062 156.640625 -91.53125 C 156.640625 -100.769531 154.375 -109.179688 149.84375 -116.765625 C 145.3125 -124.347656 139.253906 -130.40625 131.671875 -134.9375 C 124.085938 -139.46875 115.675781 -141.734375 106.4375 -141.734375 C 97.195312 -141.734375 88.785156 -139.46875 81.203125 -134.9375 C 73.617188 -130.40625 67.554688 -124.347656 63.015625 -116.765625 C 58.484375 -109.179688 56.21875 -100.769531 56.21875 -91.53125 C 56.21875 -82.289062 58.484375 -73.878906 63.015625 -66.296875 C 67.554688 -58.710938 73.617188 -52.695312 81.203125 -48.25 C 88.785156 -43.800781 97.195312 -41.578125 106.4375 -41.578125 Z M 106.4375 -41.578125 "/></g></g></g><g fill="#ffffff" fill-opacity="1"><g transform="translate(896.204622, 662.008931)"><g><path d="M 120.5625 0 L 86.5625 -58.84375 L 68.25 -58.84375 L 68.25 0 L 18.3125 0 L 18.3125 -183.0625 L 93.359375 -183.0625 C 108.179688 -183.0625 120.910156 -180.3125 131.546875 -174.8125 C 142.179688 -169.320312 150.414062 -161.914062 156.25 -152.59375 C 162.09375 -143.269531 165.015625 -132.765625 165.015625 -121.078125 C 165.015625 -110.097656 162.441406 -100.117188 157.296875 -91.140625 C 152.160156 -82.160156 144.882812 -74.878906 135.46875 -69.296875 L 175.484375 0 Z M 68.25 -140.703125 L 68.25 -101.203125 L 91.53125 -101.203125 C 102.34375 -101.203125 109.753906 -103.03125 113.765625 -106.6875 C 117.773438 -110.351562 119.78125 -115.148438 119.78125 -121.078125 C 119.78125 -126.835938 117.773438 -131.546875 113.765625 -135.203125 C 109.753906 -138.867188 102.34375 -140.703125 91.53125 -140.703125 Z M 68.25 -140.703125 "/></g></g></g><g fill="#ffffff" fill-opacity="1"><g transform="translate(1071.681593, 662.008931)"><g><path d="M 68.25 -42.359375 L 155.078125 -42.359375 L 155.078125 0 L 18.3125 0 L 18.3125 -183.0625 L 150.640625 -183.0625 L 150.640625 -140.703125 L 68.25 -140.703125 L 68.25 -112.71875 L 142.53125 -112.71875 L 142.53125 -70.34375 L 68.25 -70.34375 Z M 68.25 -42.359375 "/></g></g></g><g fill="#409eeb" fill-opacity="1"><g transform="translate(200.148145, 430.826047)"><g><path d="M 129.484375 -261.96875 C 153.941406 -261.96875 175.273438 -258.472656 193.484375 -251.484375 C 211.703125 -244.503906 226.859375 -234.960938 238.953125 -222.859375 C 251.054688 -210.765625 260.101562 -196.859375 266.09375 -181.140625 C 272.082031 -165.421875 275.078125 -148.703125 275.078125 -130.984375 C 275.078125 -113.523438 272.082031 -96.875 266.09375 -81.03125 C 260.101562 -65.1875 251.054688 -51.210938 238.953125 -39.109375 C 226.859375 -27.003906 211.703125 -17.457031 193.484375 -10.46875 C 175.273438 -3.488281 153.941406 0 129.484375 0 L 26.203125 0 L 26.203125 -261.96875 Z M 124.625 -60.625 C 144.582031 -60.625 160.734375 -63.804688 173.078125 -70.171875 C 185.429688 -76.535156 194.414062 -85.082031 200.03125 -95.8125 C 205.644531 -106.539062 208.453125 -118.265625 208.453125 -130.984375 C 208.453125 -143.960938 205.644531 -155.753906 200.03125 -166.359375 C 194.414062 -176.960938 185.429688 -185.441406 173.078125 -191.796875 C 160.734375 -198.160156 144.582031 -201.34375 124.625 -201.34375 L 97.671875 -201.34375 L 97.671875 -60.625 Z M 124.625 -60.625 "/></g></g></g><g fill="#ffffff" fill-opacity="1"><g transform="translate(486.460631, 430.826047)"><g><path d="M 97.671875 -60.625 L 221.9375 -60.625 L 221.9375 0 L 26.203125 0 L 26.203125 -261.96875 L 215.5625 -261.96875 L 215.5625 -201.34375 L 97.671875 -201.34375 L 97.671875 -161.296875 L 203.96875 -161.296875 L 203.96875 -100.671875 L 97.671875 -100.671875 Z M 97.671875 -60.625 "/></g></g></g><g fill="#ffffff" fill-opacity="1"><g transform="translate(727.107808, 430.826047)"><g><path d="M 102.921875 -191.609375 C 101.671875 -185.878906 103.226562 -181.015625 107.59375 -177.015625 C 111.957031 -173.023438 118.191406 -169.46875 126.296875 -166.34375 C 134.410156 -163.226562 143.394531 -160.050781 153.25 -156.8125 C 163.101562 -153.570312 172.957031 -149.703125 182.8125 -145.203125 C 192.675781 -140.710938 201.660156 -135.285156 209.765625 -128.921875 C 217.878906 -122.566406 224.242188 -114.644531 228.859375 -105.15625 C 233.472656 -95.675781 235.28125 -84.203125 234.28125 -70.734375 C 233.28125 -56.015625 229.722656 -43.726562 223.609375 -33.875 C 217.492188 -24.019531 209.945312 -16.222656 200.96875 -10.484375 C 191.988281 -4.742188 182.195312 -0.566406 171.59375 2.046875 C 160.988281 4.671875 150.445312 6.171875 139.96875 6.546875 C 129.488281 6.921875 119.882812 6.609375 111.15625 5.609375 C 97.675781 4.117188 84.695312 1.441406 72.21875 -2.421875 C 59.75 -6.296875 48.273438 -10.914062 37.796875 -16.28125 C 27.316406 -21.644531 18.460938 -26.945312 11.234375 -32.1875 L 44.15625 -86.453125 C 50.144531 -79.710938 57.628906 -73.910156 66.609375 -69.046875 C 75.597656 -64.179688 85.019531 -60.4375 94.875 -57.8125 C 104.726562 -55.195312 114.144531 -53.828125 123.125 -53.703125 C 132.101562 -53.578125 139.648438 -54.820312 145.765625 -57.4375 C 151.878906 -60.0625 155.5625 -64.242188 156.8125 -69.984375 C 158.3125 -76.722656 156.875 -82.210938 152.5 -86.453125 C 148.132812 -90.691406 141.957031 -94.367188 133.96875 -97.484375 C 125.988281 -100.609375 117.132812 -103.664062 107.40625 -106.65625 C 97.675781 -109.65625 87.945312 -113.273438 78.21875 -117.515625 C 68.488281 -121.753906 59.691406 -127.179688 51.828125 -133.796875 C 43.972656 -140.410156 38.046875 -148.769531 34.046875 -158.875 C 30.054688 -168.976562 28.9375 -181.515625 30.6875 -196.484375 C 31.9375 -206.210938 34.804688 -215.566406 39.296875 -224.546875 C 43.785156 -233.523438 50.394531 -241.507812 59.125 -248.5 C 67.863281 -255.488281 79.21875 -260.789062 93.1875 -264.40625 C 107.15625 -268.019531 124.125 -269.207031 144.09375 -267.96875 C 161.050781 -266.96875 175.207031 -264.71875 186.5625 -261.21875 C 197.914062 -257.726562 206.832031 -254.113281 213.3125 -250.375 C 219.800781 -246.632812 223.921875 -244.015625 225.671875 -242.515625 L 200.21875 -186.375 C 195.476562 -190.863281 189.300781 -194.914062 181.6875 -198.53125 C 174.082031 -202.15625 166.035156 -204.960938 157.546875 -206.953125 C 149.066406 -208.953125 140.894531 -209.828125 133.03125 -209.578125 C 125.175781 -209.328125 118.503906 -207.828125 113.015625 -205.078125 C 107.535156 -202.335938 104.171875 -197.847656 102.921875 -191.609375 Z M 102.921875 -191.609375 "/></g></g></g><g fill="#ffffff" fill-opacity="1"><g transform="translate(972.994546, 430.826047)"><g><path d="M 253.375 0 L 169.90625 0 L 97.671875 -115.265625 L 97.671875 0 L 26.203125 0 L 26.203125 -261.96875 L 97.671875 -261.96875 L 97.671875 -152.6875 L 159.4375 -261.96875 L 242.890625 -261.96875 L 167.296875 -135.109375 Z M 253.375 0 "/></g></g></g></svg>