<svg xmlns="http://www.w3.org/2000/svg" xmlns:xlink="http://www.w3.org/1999/xlink" width="1645" zoomAndPan="magnify" viewBox="0 0 1233.75 824.249979" height="1099" preserveAspectRatio="xMidYMid meet" version="1.0"><defs><g/></defs><g fill="#ffffff" fill-opacity="1"><g transform="translate(403.371691, 685.494695)"><g><path d="M 111.828125 -40.765625 C 118.617188 -40.765625 125.148438 -41.9375 131.421875 -44.28125 C 137.691406 -46.632812 143.613281 -49.816406 149.1875 -53.828125 L 173.75 -18.8125 C 164.695312 -11.84375 155.070312 -6.3125 144.875 -2.21875 C 134.6875 1.875 123.671875 3.921875 111.828125 3.921875 C 97.023438 3.921875 83.304688 1.441406 70.671875 -3.515625 C 58.046875 -8.484375 47.03125 -15.320312 37.625 -24.03125 C 28.21875 -32.75 20.898438 -42.851562 15.671875 -54.34375 C 10.453125 -65.84375 7.84375 -78.210938 7.84375 -91.453125 C 7.84375 -104.691406 10.453125 -117.054688 15.671875 -128.546875 C 20.898438 -140.046875 28.21875 -150.191406 37.625 -158.984375 C 47.03125 -167.785156 58.046875 -174.664062 70.671875 -179.625 C 83.304688 -184.59375 97.023438 -187.078125 111.828125 -187.078125 C 123.671875 -187.078125 134.6875 -185.03125 144.875 -180.9375 C 155.070312 -176.84375 164.695312 -171.222656 173.75 -164.078125 L 149.1875 -129.328125 C 137.695312 -137.867188 125.242188 -142.140625 111.828125 -142.140625 C 101.378906 -142.140625 92.015625 -139.875 83.734375 -135.34375 C 75.460938 -130.8125 68.890625 -124.753906 64.015625 -117.171875 C 59.140625 -109.597656 56.703125 -101.023438 56.703125 -91.453125 C 56.703125 -82.046875 59.140625 -73.507812 64.015625 -65.84375 C 68.890625 -58.175781 75.460938 -52.078125 83.734375 -47.546875 C 92.015625 -43.023438 101.378906 -40.765625 111.828125 -40.765625 Z M 111.828125 -40.765625 "/></g></g></g><g fill="#ffffff" fill-opacity="1"><g transform="translate(584.959831, 685.494695)"><g><path d="M 106.34375 -187.078125 C 119.582031 -187.078125 132.078125 -184.59375 143.828125 -179.625 C 155.585938 -174.664062 166.039062 -167.785156 175.1875 -158.984375 C 184.332031 -150.191406 191.515625 -140.046875 196.734375 -128.546875 C 201.960938 -117.054688 204.578125 -104.691406 204.578125 -91.453125 C 204.578125 -78.210938 201.960938 -65.84375 196.734375 -54.34375 C 191.515625 -42.851562 184.332031 -32.75 175.1875 -24.03125 C 166.039062 -15.320312 155.585938 -8.484375 143.828125 -3.515625 C 132.078125 1.441406 119.582031 3.921875 106.34375 3.921875 C 93.101562 3.921875 80.5625 1.441406 68.71875 -3.515625 C 56.875 -8.484375 46.378906 -15.320312 37.234375 -24.03125 C 28.085938 -32.75 20.898438 -42.851562 15.671875 -54.34375 C 10.453125 -65.84375 7.84375 -78.210938 7.84375 -91.453125 C 7.84375 -104.691406 10.453125 -117.054688 15.671875 -128.546875 C 20.898438 -140.046875 28.085938 -150.191406 37.234375 -158.984375 C 46.378906 -167.785156 56.875 -174.664062 68.71875 -179.625 C 80.5625 -184.59375 93.101562 -187.078125 106.34375 -187.078125 Z M 106.34375 -41.546875 C 115.570312 -41.546875 123.972656 -43.765625 131.546875 -48.203125 C 139.128906 -52.648438 145.179688 -58.660156 149.703125 -66.234375 C 154.234375 -73.804688 156.5 -82.210938 156.5 -91.453125 C 156.5 -100.679688 154.234375 -109.082031 149.703125 -116.65625 C 145.179688 -124.238281 139.128906 -130.289062 131.546875 -134.8125 C 123.972656 -139.34375 115.570312 -141.609375 106.34375 -141.609375 C 97.113281 -141.609375 88.707031 -139.34375 81.125 -134.8125 C 73.550781 -130.289062 67.5 -124.238281 62.96875 -116.65625 C 58.4375 -109.082031 56.171875 -100.679688 56.171875 -91.453125 C 56.171875 -82.210938 58.4375 -73.804688 62.96875 -66.234375 C 67.5 -58.660156 73.550781 -52.648438 81.125 -48.203125 C 88.707031 -43.765625 97.113281 -41.546875 106.34375 -41.546875 Z M 106.34375 -41.546875 "/></g></g></g><g fill="#ffffff" fill-opacity="1"><g transform="translate(797.378748, 685.494695)"><g><path d="M 120.453125 0 L 86.484375 -58.78125 L 68.1875 -58.78125 L 68.1875 0 L 18.296875 0 L 18.296875 -182.890625 L 93.28125 -182.890625 C 108.082031 -182.890625 120.796875 -180.144531 131.421875 -174.65625 C 142.046875 -169.175781 150.273438 -161.773438 156.109375 -152.453125 C 161.953125 -143.140625 164.875 -132.644531 164.875 -120.96875 C 164.875 -110 162.300781 -100.023438 157.15625 -91.046875 C 152.019531 -82.078125 144.75 -74.804688 135.34375 -69.234375 L 175.3125 0 Z M 68.1875 -140.5625 L 68.1875 -101.109375 L 91.453125 -101.109375 C 102.242188 -101.109375 109.644531 -102.9375 113.65625 -106.59375 C 117.664062 -110.257812 119.671875 -115.050781 119.671875 -120.96875 C 119.671875 -126.71875 117.664062 -131.421875 113.65625 -135.078125 C 109.644531 -138.734375 102.242188 -140.5625 91.453125 -140.5625 Z M 68.1875 -140.5625 "/></g></g></g><g fill="#ffffff" fill-opacity="1"><g transform="translate(972.696191, 685.494695)"><g><path d="M 68.1875 -42.328125 L 154.9375 -42.328125 L 154.9375 0 L 18.296875 0 L 18.296875 -182.890625 L 150.5 -182.890625 L 150.5 -140.5625 L 68.1875 -140.5625 L 68.1875 -112.609375 L 142.390625 -112.609375 L 142.390625 -70.28125 L 68.1875 -70.28125 Z M 68.1875 -42.328125 "/></g></g></g><g fill="#409eeb" fill-opacity="1"><g transform="translate(101.955061, 454.521934)"><g><path d="M 129.375 -261.75 C 153.800781 -261.75 175.113281 -258.257812 193.3125 -251.28125 C 211.507812 -244.300781 226.65625 -234.765625 238.75 -222.671875 C 250.84375 -210.578125 259.878906 -196.675781 265.859375 -180.96875 C 271.835938 -165.269531 274.828125 -148.570312 274.828125 -130.875 C 274.828125 -113.425781 271.835938 -96.785156 265.859375 -80.953125 C 259.878906 -65.117188 250.84375 -51.15625 238.75 -39.0625 C 226.65625 -26.976562 211.507812 -17.445312 193.3125 -10.46875 C 175.113281 -3.488281 153.800781 0 129.375 0 L 26.171875 0 L 26.171875 -261.75 Z M 124.515625 -60.578125 C 144.460938 -60.578125 160.601562 -63.753906 172.9375 -70.109375 C 185.28125 -76.460938 194.253906 -85 199.859375 -95.71875 C 205.472656 -106.4375 208.28125 -118.15625 208.28125 -130.875 C 208.28125 -143.832031 205.472656 -155.609375 199.859375 -166.203125 C 194.253906 -176.796875 185.28125 -185.269531 172.9375 -191.625 C 160.601562 -197.988281 144.460938 -201.171875 124.515625 -201.171875 L 97.59375 -201.171875 L 97.59375 -60.578125 Z M 124.515625 -60.578125 "/></g></g></g><g fill="#ffffff" fill-opacity="1"><g transform="translate(388.007257, 454.521934)"><g><path d="M 97.59375 -60.578125 L 221.734375 -60.578125 L 221.734375 0 L 26.171875 0 L 26.171875 -261.75 L 215.375 -261.75 L 215.375 -201.171875 L 97.59375 -201.171875 L 97.59375 -161.15625 L 203.78125 -161.15625 L 203.78125 -100.578125 L 97.59375 -100.578125 Z M 97.59375 -60.578125 "/></g></g></g><g fill="#ffffff" fill-opacity="1"><g transform="translate(628.435661, 454.521934)"><g><path d="M 102.828125 -191.453125 C 101.578125 -185.710938 103.132812 -180.847656 107.5 -176.859375 C 111.863281 -172.867188 118.09375 -169.316406 126.1875 -166.203125 C 134.289062 -163.085938 143.265625 -159.910156 153.109375 -156.671875 C 162.960938 -153.429688 172.8125 -149.566406 182.65625 -145.078125 C 192.507812 -140.585938 201.484375 -135.164062 209.578125 -128.8125 C 217.679688 -122.457031 224.039062 -114.539062 228.65625 -105.0625 C 233.269531 -95.59375 235.078125 -84.128906 234.078125 -70.671875 C 233.078125 -55.960938 229.519531 -43.679688 223.40625 -33.828125 C 217.300781 -23.984375 209.757812 -16.195312 200.78125 -10.46875 C 191.8125 -4.738281 182.03125 -0.566406 171.4375 2.046875 C 160.84375 4.671875 150.3125 6.171875 139.84375 6.546875 C 129.375 6.921875 119.78125 6.609375 111.0625 5.609375 C 97.59375 4.109375 84.625 1.429688 72.15625 -2.421875 C 59.695312 -6.285156 48.234375 -10.898438 37.765625 -16.265625 C 27.296875 -21.628906 18.445312 -26.925781 11.21875 -32.15625 L 44.125 -86.375 C 50.101562 -79.644531 57.578125 -73.847656 66.546875 -68.984375 C 75.523438 -64.128906 84.9375 -60.390625 94.78125 -57.765625 C 104.632812 -55.148438 114.046875 -53.78125 123.015625 -53.65625 C 131.992188 -53.53125 139.535156 -54.773438 145.640625 -57.390625 C 151.742188 -60.015625 155.421875 -64.191406 156.671875 -69.921875 C 158.171875 -76.648438 156.738281 -82.132812 152.375 -86.375 C 148.007812 -90.613281 141.835938 -94.289062 133.859375 -97.40625 C 125.890625 -100.519531 117.039062 -103.570312 107.3125 -106.5625 C 97.59375 -109.5625 87.867188 -113.175781 78.140625 -117.40625 C 68.421875 -121.644531 59.632812 -127.066406 51.78125 -133.671875 C 43.9375 -140.285156 38.019531 -148.640625 34.03125 -158.734375 C 30.039062 -168.828125 28.914062 -181.351562 30.65625 -196.3125 C 31.90625 -206.03125 34.773438 -215.375 39.265625 -224.34375 C 43.753906 -233.320312 50.359375 -241.300781 59.078125 -248.28125 C 67.804688 -255.257812 79.148438 -260.554688 93.109375 -264.171875 C 107.066406 -267.785156 124.015625 -268.972656 143.953125 -267.734375 C 160.910156 -266.734375 175.054688 -264.488281 186.390625 -261 C 197.734375 -257.507812 206.644531 -253.894531 213.125 -250.15625 C 219.613281 -246.414062 223.726562 -243.796875 225.46875 -242.296875 L 200.046875 -186.21875 C 195.304688 -190.695312 189.132812 -194.742188 181.53125 -198.359375 C 173.9375 -201.972656 165.898438 -204.773438 157.421875 -206.765625 C 148.941406 -208.765625 140.773438 -209.640625 132.921875 -209.390625 C 125.078125 -209.140625 118.410156 -207.644531 112.921875 -204.90625 C 107.441406 -202.164062 104.078125 -197.679688 102.828125 -191.453125 Z M 102.828125 -191.453125 "/></g></g></g><g fill="#ffffff" fill-opacity="1"><g transform="translate(874.098861, 454.521934)"><g><path d="M 253.140625 0 L 169.765625 0 L 97.59375 -115.171875 L 97.59375 0 L 26.171875 0 L 26.171875 -261.75 L 97.59375 -261.75 L 97.59375 -152.5625 L 159.296875 -261.75 L 242.671875 -261.75 L 167.140625 -134.984375 Z M 253.140625 0 "/></g></g></g></svg>