<svg xmlns="http://www.w3.org/2000/svg" xmlns:xlink="http://www.w3.org/1999/xlink" width="620" zoomAndPan="magnify" viewBox="0 0 464.87997 522.000001" height="696" preserveAspectRatio="xMidYMid meet" version="1.0"><defs><clipPath id="db784fe0fe"><path d="M 103.785156 103.804688 L 382.253906 103.804688 L 382.253906 416.703125 L 103.785156 416.703125 Z M 103.785156 103.804688 " clip-rule="nonzero"/></clipPath><clipPath id="8f7d235250"><path d="M 0.382812 0 L 463.746094 0 L 463.746094 520.253906 L 0.382812 520.253906 Z M 0.382812 0 " clip-rule="nonzero"/></clipPath></defs><path fill="#f9f9f9" d="M 243.105469 107.199219 L 107.417969 175.042969 L 243.105469 242.886719 L 378.796875 175.042969 Z M 243.105469 107.199219 " fill-opacity="1" fill-rule="nonzero"/><path fill="#d9d9d9" d="M 243.105469 242.882812 L 243.105469 412.492188 L 378.796875 344.648438 L 378.796875 175.039062 Z M 243.105469 242.882812 " fill-opacity="1" fill-rule="nonzero"/><path fill="#409eeb" d="M 243.105469 242.882812 L 243.105469 412.492188 L 107.417969 344.648438 L 107.417969 175.039062 Z M 243.105469 242.882812 " fill-opacity="1" fill-rule="nonzero"/><g clip-path="url(#db784fe0fe)"><path stroke-linecap="butt" transform="matrix(6.784387, 0, 0, 6.784387, 39.575807, 91.171945)" fill="none" stroke-linejoin="miter" d="M 29.999715 2.375043 L 9.999749 12.375026 L 9.999749 37.374984 L 29.999715 47.374967 L 50.000257 37.374984 L 50.000257 12.375026 Z M 29.999715 2.375043 " stroke="#4d4d4d" stroke-width="1" stroke-opacity="1" stroke-miterlimit="4"/></g><path fill="#f9f9f9" d="M 232.1875 5.644531 L 6.429688 118.523438 L 232.1875 231.402344 L 457.945312 118.523438 Z M 232.1875 5.644531 " fill-opacity="1" fill-rule="nonzero"/><path fill="#d9d9d9" d="M 232.1875 231.402344 L 232.1875 513.597656 L 457.945312 400.71875 L 457.945312 118.523438 Z M 232.1875 231.402344 " fill-opacity="1" fill-rule="nonzero"/><path fill="#1768ac" d="M 232.1875 231.402344 L 232.1875 513.597656 L 6.429688 400.71875 L 6.429688 118.523438 Z M 232.1875 231.402344 " fill-opacity="1" fill-rule="nonzero"/><g clip-path="url(#8f7d235250)"><path stroke-linecap="butt" transform="matrix(11.287859, 0, 0, 11.287859, -106.447265, -21.017973)" fill="none" stroke-linejoin="miter" d="M 29.999911 2.374856 L 9.999855 12.374884 L 9.999855 37.375127 L 29.999911 47.375154 L 49.999967 37.375127 L 49.999967 12.374884 Z M 29.999911 2.374856 " stroke="#4d4d4d" stroke-width="1" stroke-opacity="1" stroke-miterlimit="4"/></g></svg>