<svg xmlns="http://www.w3.org/2000/svg" xmlns:xlink="http://www.w3.org/1999/xlink" width="1907" zoomAndPan="magnify" viewBox="0 0 1430.25 522.000001" height="696" preserveAspectRatio="xMidYMid meet" version="1.0"><defs><g/><clipPath id="2ed0113474"><path d="M 0.992188 0 L 464.355469 0 L 464.355469 520.253906 L 0.992188 520.253906 Z M 0.992188 0 " clip-rule="nonzero"/></clipPath></defs><path fill="#f9f9f9" d="M 232.796875 5.644531 L 7.039062 118.523438 L 232.796875 231.402344 L 458.554688 118.523438 Z M 232.796875 5.644531 " fill-opacity="1" fill-rule="nonzero"/><path fill="#d9d9d9" d="M 232.796875 231.402344 L 232.796875 513.597656 L 458.554688 400.71875 L 458.554688 118.523438 Z M 232.796875 231.402344 " fill-opacity="1" fill-rule="nonzero"/><path fill="#1768ac" d="M 232.796875 231.402344 L 232.796875 513.597656 L 7.039062 400.71875 L 7.039062 118.523438 Z M 232.796875 231.402344 " fill-opacity="1" fill-rule="nonzero"/><g clip-path="url(#2ed0113474)"><path stroke-linecap="butt" transform="matrix(11.287859, 0, 0, 11.287859, -105.838733, -21.017973)" fill="none" stroke-linejoin="miter" d="M 29.999985 2.374856 L 9.99993 12.374884 L 9.99993 37.375127 L 29.999985 47.375154 L 50.000041 37.375127 L 50.000041 12.374884 Z M 29.999985 2.374856 " stroke="#4d4d4d" stroke-width="1" stroke-opacity="1" stroke-miterlimit="4"/></g><g fill="#0d1321" fill-opacity="1"><g transform="translate(931.685335, 418.904888)"><g><path d="M 65.875 -24.015625 C 69.875 -24.015625 73.71875 -24.707031 77.40625 -26.09375 C 81.101562 -27.476562 84.59375 -29.347656 87.875 -31.703125 L 102.34375 -11.078125 C 97.007812 -6.972656 91.34375 -3.710938 85.34375 -1.296875 C 79.34375 1.109375 72.851562 2.3125 65.875 2.3125 C 57.15625 2.3125 49.070312 0.847656 41.625 -2.078125 C 34.1875 -5.003906 27.695312 -9.03125 22.15625 -14.15625 C 16.625 -19.289062 12.316406 -25.242188 9.234375 -32.015625 C 6.160156 -38.785156 4.625 -46.070312 4.625 -53.875 C 4.625 -61.664062 6.160156 -68.945312 9.234375 -75.71875 C 12.316406 -82.488281 16.625 -88.460938 22.15625 -93.640625 C 27.695312 -98.828125 34.1875 -102.882812 41.625 -105.8125 C 49.070312 -108.738281 57.15625 -110.203125 65.875 -110.203125 C 72.851562 -110.203125 79.34375 -108.992188 85.34375 -106.578125 C 91.34375 -104.171875 97.007812 -100.863281 102.34375 -96.65625 L 87.875 -76.1875 C 81.101562 -81.207031 73.769531 -83.71875 65.875 -83.71875 C 59.71875 -83.71875 54.203125 -82.382812 49.328125 -79.71875 C 44.453125 -77.050781 40.578125 -73.484375 37.703125 -69.015625 C 34.828125 -64.554688 33.390625 -59.507812 33.390625 -53.875 C 33.390625 -48.332031 34.828125 -43.300781 37.703125 -38.78125 C 40.578125 -34.269531 44.453125 -30.679688 49.328125 -28.015625 C 54.203125 -25.347656 59.71875 -24.015625 65.875 -24.015625 Z M 65.875 -24.015625 "/></g></g></g><g fill="#0d1321" fill-opacity="1"><g transform="translate(1038.653643, 418.904888)"><g><path d="M 62.640625 -110.203125 C 70.441406 -110.203125 77.800781 -108.738281 84.71875 -105.8125 C 91.644531 -102.882812 97.800781 -98.828125 103.1875 -93.640625 C 108.582031 -88.460938 112.816406 -82.488281 115.890625 -75.71875 C 118.972656 -68.945312 120.515625 -61.664062 120.515625 -53.875 C 120.515625 -46.070312 118.972656 -38.785156 115.890625 -32.015625 C 112.816406 -25.242188 108.582031 -19.289062 103.1875 -14.15625 C 97.800781 -9.03125 91.644531 -5.003906 84.71875 -2.078125 C 77.800781 0.847656 70.441406 2.3125 62.640625 2.3125 C 54.835938 2.3125 47.445312 0.847656 40.46875 -2.078125 C 33.5 -5.003906 27.320312 -9.03125 21.9375 -14.15625 C 16.550781 -19.289062 12.316406 -25.242188 9.234375 -32.015625 C 6.160156 -38.785156 4.625 -46.070312 4.625 -53.875 C 4.625 -61.664062 6.160156 -68.945312 9.234375 -75.71875 C 12.316406 -82.488281 16.550781 -88.460938 21.9375 -93.640625 C 27.320312 -98.828125 33.5 -102.882812 40.46875 -105.8125 C 47.445312 -108.738281 54.835938 -110.203125 62.640625 -110.203125 Z M 62.640625 -24.46875 C 68.078125 -24.46875 73.023438 -25.773438 77.484375 -28.390625 C 81.953125 -31.015625 85.519531 -34.554688 88.1875 -39.015625 C 90.851562 -43.472656 92.1875 -48.425781 92.1875 -53.875 C 92.1875 -59.3125 90.851562 -64.257812 88.1875 -68.71875 C 85.519531 -73.1875 81.953125 -76.753906 77.484375 -79.421875 C 73.023438 -82.085938 68.078125 -83.421875 62.640625 -83.421875 C 57.203125 -83.421875 52.25 -82.085938 47.78125 -79.421875 C 43.320312 -76.753906 39.757812 -73.1875 37.09375 -68.71875 C 34.425781 -64.257812 33.09375 -59.3125 33.09375 -53.875 C 33.09375 -48.425781 34.425781 -43.472656 37.09375 -39.015625 C 39.757812 -34.554688 43.320312 -31.015625 47.78125 -28.390625 C 52.25 -25.773438 57.203125 -24.46875 62.640625 -24.46875 Z M 62.640625 -24.46875 "/></g></g></g><g fill="#0d1321" fill-opacity="1"><g transform="translate(1163.783467, 418.904888)"><g><path d="M 70.953125 0 L 50.9375 -34.625 L 40.171875 -34.625 L 40.171875 0 L 10.78125 0 L 10.78125 -107.734375 L 54.9375 -107.734375 C 63.664062 -107.734375 71.15625 -106.113281 77.40625 -102.875 C 83.664062 -99.644531 88.515625 -95.285156 91.953125 -89.796875 C 95.390625 -84.316406 97.109375 -78.140625 97.109375 -71.265625 C 97.109375 -64.796875 95.59375 -58.914062 92.5625 -53.625 C 89.539062 -48.34375 85.257812 -44.0625 79.71875 -40.78125 L 103.265625 0 Z M 40.171875 -82.796875 L 40.171875 -59.5625 L 53.875 -59.5625 C 60.226562 -59.5625 64.582031 -60.640625 66.9375 -62.796875 C 69.300781 -64.953125 70.484375 -67.773438 70.484375 -71.265625 C 70.484375 -74.648438 69.300781 -77.414062 66.9375 -79.5625 C 64.582031 -81.71875 60.226562 -82.796875 53.875 -82.796875 Z M 40.171875 -82.796875 "/></g></g></g><g fill="#0d1321" fill-opacity="1"><g transform="translate(1267.057889, 418.904888)"><g><path d="M 40.171875 -24.9375 L 91.265625 -24.9375 L 91.265625 0 L 10.78125 0 L 10.78125 -107.734375 L 88.65625 -107.734375 L 88.65625 -82.796875 L 40.171875 -82.796875 L 40.171875 -66.328125 L 83.875 -66.328125 L 83.875 -41.40625 L 40.171875 -41.40625 Z M 40.171875 -24.9375 "/></g></g></g><g fill="#1768ac" fill-opacity="1"><g transform="translate(739.536987, 276.472608)"><g><path d="M 78.765625 -159.34375 C 93.640625 -159.34375 106.613281 -157.21875 117.6875 -152.96875 C 128.769531 -148.71875 137.988281 -142.910156 145.34375 -135.546875 C 152.707031 -128.191406 158.207031 -119.734375 161.84375 -110.171875 C 165.488281 -100.617188 167.3125 -90.453125 167.3125 -79.671875 C 167.3125 -69.046875 165.488281 -58.914062 161.84375 -49.28125 C 158.207031 -39.644531 152.707031 -31.144531 145.34375 -23.78125 C 137.988281 -16.425781 128.769531 -10.625 117.6875 -6.375 C 106.613281 -2.125 93.640625 0 78.765625 0 L 15.9375 0 L 15.9375 -159.34375 Z M 75.796875 -36.875 C 87.941406 -36.875 97.769531 -38.804688 105.28125 -42.671875 C 112.789062 -46.546875 118.253906 -51.742188 121.671875 -58.265625 C 125.085938 -64.796875 126.796875 -71.929688 126.796875 -79.671875 C 126.796875 -87.566406 125.085938 -94.738281 121.671875 -101.1875 C 118.253906 -107.632812 112.789062 -112.789062 105.28125 -116.65625 C 97.769531 -120.53125 87.941406 -122.46875 75.796875 -122.46875 L 59.421875 -122.46875 L 59.421875 -36.875 Z M 75.796875 -36.875 "/></g></g></g><g fill="#0d1321" fill-opacity="1"><g transform="translate(913.691999, 276.472608)"><g><path d="M 59.421875 -36.875 L 134.984375 -36.875 L 134.984375 0 L 15.9375 0 L 15.9375 -159.34375 L 131.125 -159.34375 L 131.125 -122.46875 L 59.421875 -122.46875 L 59.421875 -98.109375 L 124.0625 -98.109375 L 124.0625 -61.234375 L 59.421875 -61.234375 Z M 59.421875 -36.875 "/></g></g></g><g fill="#0d1321" fill-opacity="1"><g transform="translate(1060.063656, 276.472608)"><g><path d="M 62.59375 -116.546875 C 61.84375 -113.054688 62.796875 -110.097656 65.453125 -107.671875 C 68.109375 -105.242188 71.898438 -103.082031 76.828125 -101.1875 C 81.765625 -99.289062 87.226562 -97.351562 93.21875 -95.375 C 99.207031 -93.40625 105.195312 -91.054688 111.1875 -88.328125 C 117.1875 -85.597656 122.648438 -82.296875 127.578125 -78.421875 C 132.515625 -74.554688 136.382812 -69.738281 139.1875 -63.96875 C 142 -58.195312 143.101562 -51.21875 142.5 -43.03125 C 141.894531 -34.070312 139.734375 -26.59375 136.015625 -20.59375 C 132.296875 -14.601562 127.703125 -9.863281 122.234375 -6.375 C 116.773438 -2.882812 110.820312 -0.34375 104.375 1.25 C 97.925781 2.84375 91.515625 3.753906 85.140625 3.984375 C 78.765625 4.210938 72.921875 4.023438 67.609375 3.421875 C 59.410156 2.503906 51.515625 0.867188 43.921875 -1.484375 C 36.335938 -3.835938 29.359375 -6.644531 22.984375 -9.90625 C 16.617188 -13.164062 11.234375 -16.390625 6.828125 -19.578125 L 26.859375 -52.578125 C 30.503906 -48.484375 35.054688 -44.957031 40.515625 -42 C 45.984375 -39.039062 51.710938 -36.765625 57.703125 -35.171875 C 63.703125 -33.578125 69.429688 -32.738281 74.890625 -32.65625 C 80.359375 -32.582031 84.953125 -33.34375 88.671875 -34.9375 C 92.390625 -36.53125 94.625 -39.070312 95.375 -42.5625 C 96.289062 -46.664062 95.421875 -50.003906 92.765625 -52.578125 C 90.109375 -55.160156 86.347656 -57.398438 81.484375 -59.296875 C 76.628906 -61.191406 71.242188 -63.050781 65.328125 -64.875 C 59.410156 -66.695312 53.492188 -68.894531 47.578125 -71.46875 C 41.660156 -74.050781 36.3125 -77.351562 31.53125 -81.375 C 26.75 -85.394531 23.144531 -90.476562 20.71875 -96.625 C 18.289062 -102.78125 17.609375 -110.410156 18.671875 -119.515625 C 19.429688 -125.429688 21.175781 -131.117188 23.90625 -136.578125 C 26.632812 -142.046875 30.65625 -146.90625 35.96875 -151.15625 C 41.28125 -155.40625 48.1875 -158.628906 56.6875 -160.828125 C 65.1875 -163.023438 75.503906 -163.742188 87.640625 -162.984375 C 97.960938 -162.378906 106.578125 -161.015625 113.484375 -158.890625 C 120.390625 -156.765625 125.8125 -154.5625 129.75 -152.28125 C 133.695312 -150.007812 136.203125 -148.421875 137.265625 -147.515625 L 121.78125 -113.359375 C 118.90625 -116.097656 115.148438 -118.566406 110.515625 -120.765625 C 105.890625 -122.960938 100.992188 -124.664062 95.828125 -125.875 C 90.671875 -127.09375 85.703125 -127.625 80.921875 -127.46875 C 76.140625 -127.320312 72.078125 -126.414062 68.734375 -124.75 C 65.398438 -123.082031 63.351562 -120.347656 62.59375 -116.546875 Z M 62.59375 -116.546875 "/></g></g></g><g fill="#0d1321" fill-opacity="1"><g transform="translate(1209.62226, 276.472608)"><g><path d="M 154.109375 0 L 103.34375 0 L 59.421875 -70.109375 L 59.421875 0 L 15.9375 0 L 15.9375 -159.34375 L 59.421875 -159.34375 L 59.421875 -92.875 L 96.96875 -159.34375 L 147.734375 -159.34375 L 101.75 -82.171875 Z M 154.109375 0 "/></g></g></g></svg>