<svg xmlns="http://www.w3.org/2000/svg" xmlns:xlink="http://www.w3.org/1999/xlink" width="1120" zoomAndPan="magnify" viewBox="0 0 840 839.999992" height="1120" preserveAspectRatio="xMidYMid meet" version="1.0"><defs><clipPath id="a947e2b12f"><path d="M 67.9375 24.828125 L 772.1875 24.828125 L 772.1875 815.328125 L 67.9375 815.328125 Z M 67.9375 24.828125 " clip-rule="nonzero"/></clipPath></defs><path fill="#f9f9f9" d="M 420 33.402344 L 77.121094 204.84375 L 420 376.28125 L 762.878906 204.84375 Z M 420 33.402344 " fill-opacity="1" fill-rule="nonzero"/><path fill="#d9d9d9" d="M 420 376.277344 L 420 804.878906 L 762.878906 633.4375 L 762.878906 204.839844 Z M 420 376.277344 " fill-opacity="1" fill-rule="nonzero"/><path fill="#1768ac" d="M 420 376.277344 L 420 804.878906 L 77.121094 633.4375 L 77.121094 204.839844 Z M 420 376.277344 " fill-opacity="1" fill-rule="nonzero"/><g clip-path="url(#a947e2b12f)"><path stroke-linecap="butt" transform="matrix(17.143946, 0, 0, 17.143946, -94.319963, -7.093747)" fill="none" stroke-linejoin="miter" d="M 30.000092 2.375109 L 10.000093 12.374995 L 10.000093 37.374937 L 30.000092 47.37505 L 50.000091 37.374937 L 50.000091 12.374995 Z M 30.000092 2.375109 " stroke="#4d4d4d" stroke-width="1" stroke-opacity="1" stroke-miterlimit="4"/></g></svg>